PathFileType	4	(X/Y/Z)	/Users/itak/Documents/Research/Walk-IL/dataset/trc/00421_00012.trc
DataRate	CameraRate	NumFrames	NumMarkers	Units	OrigDataRate	OrigDataStartFrame	OrigNumFrames
100.000000	100.000000	4	53	mm	100.000000	423	564
Frame#	Time	RPSI			LPSI			L3			STRN			T10			C7			CLAV			RBAK			LBAK			LSHO			LUPA			LAEL			LAOL			LWTS			LWPS			LFRA			LIFD			LHPS			LHTS			RSHO			RUPA			RAEL			RAOL			RWTS			RWPS			RFRA			RIFD			RHPS			RBHD			LFHD			RFHD			LBHD			LHIP			RHIP			RASI			LASI			LKNE			LTHI			LANK			LTIP			LTOE			LMT1			LMT5			LHEE			RKNE			RTHI			RANK			RTIP			RTOE			RMT1			RMT5			RHEE			RHTS			
		X1	Y1	Z1	X2	Y2	Z2	X3	Y3	Z3	X4	Y4	Z4	X5	Y5	Z5	X6	Y6	Z6	X7	Y7	Z7	X8	Y8	Z8	X9	Y9	Z9	X10	Y10	Z10	X11	Y11	Z11	X12	Y12	Z12	X13	Y13	Z13	X14	Y14	Z14	X15	Y15	Z15	X16	Y16	Z16	X17	Y17	Z17	X18	Y18	Z18	X19	Y19	Z19	X20	Y20	Z20	X21	Y21	Z21	X22	Y22	Z22	X23	Y23	Z23	X24	Y24	Z24	X25	Y25	Z25	X26	Y26	Z26	X27	Y27	Z27	X28	Y28	Z28	X29	Y29	Z29	X30	Y30	Z30	X31	Y31	Z31	X32	Y32	Z32	X33	Y33	Z33	X34	Y34	Z34	X35	Y35	Z35	X36	Y36	Z36	X37	Y37	Z37	X38	Y38	Z38	X39	Y39	Z39	X40	Y40	Z40	X41	Y41	Z41	X42	Y42	Z42	X43	Y43	Z43	X44	Y44	Z44	X45	Y45	Z45	X46	Y46	Z46	X47	Y47	Z47	X48	Y48	Z48	X49	Y49	Z49	X50	Y50	Z50	X51	Y51	Z51	X52	Y52	Z52	X53	Y53	Z53	

424	4.23	131.6509552001953	952.0567016601562	399.6395568847656	264.4804382324219	956.6839599609375	403.7939758300781	189.4317474365234	1037.958862304688	402.2112731933594	166.1147613525391	1202.590209960938	629.4722290039062	192.0829315185547	1137.27197265625	391.1620483398438	197.3458099365234	1389.506591796875	409.2432861328125	173.0359802246094	1318.817749023438	570.2400512695312	134.4959259033203	1242.294677734375	365.7440795898438	301.1313781738281	1351.682739257812	408.0960998535156	338.9607238769531	1370.98095703125	499.3154907226562	416.4862365722656	1258.698608398438	491.91552734375	460.2671813964844	1069.767211914062	534.2100219726562	405.8815307617188	1035.784790039062	476.7366333007812	431.5285339355469	886.4381713867188	675.9840087890625	496.06982421875	862.4403076171875	629.8706665039062	478.6778869628906	973.2479858398438	571.9608154296875	455.9806518554688	718.6538696289062	733.183349609375	496.1275634765625	787.8162841796875	669.9503173828125	461.9770812988281	803.7517700195312	721.6815795898438	33.79301452636719	1371.430297851562	450.621337890625	-21.36514472961426	1306.068969726562	430.7821655273438	-56.63607025146484	1043.9599609375	427.9447937011719	38.22301483154297	1034.397338867188	428.8755798339844	-61.11203765869141	825.4247436523438	551.8994750976562	-110.6165084838867	818.796630859375	496.2421569824219	-79.80520629882812	980.454833984375	446.403076171875	-62.88079071044922	651.2090454101562	532.935546875	-113.5896530151367	729.613525390625	492.8861389160156	111.9076766967773	1565.974975585938	404.1941223144531	228.9550323486328	1604.661987304688	561.7744750976562	110.5838851928711	1602.121704101562	534.4454345703125	271.2790222167969	1563.472045898438	425.3745727539062	371.5477905273438	962.20947265625	498.7216491699219	13.81881809234619	927.1370239257812	476.9183959960938	59.40483474731445	949.727294921875	612.1419677734375	322.6474914550781	964.8758544921875	614.0308837890625	337.5675354003906	477.9921264648438	648.1740112304688	355.6595764160156	616.9852294921875	612.1153564453125	313.0535583496094	42.17830276489258	562.80859375	335.6698913574219	241.6304931640625	614.8350219726562	245.1537017822266	38.97737503051758	779.1273193359375	213.8877258300781	39.46720123291016	694.7950439453125	320.5962524414062	40.96630477905273	688.879638671875	258.9693298339844	38.08866500854492	523.2550659179688	57.44623947143555	463.76220703125	624.5515747070312	24.37670135498047	711.38720703125	597.2005004882812	87.31861114501953	172.0239105224609	311.8951110839844	68.12422180175781	357.55322265625	560.2049560546875	131.4870758056641	41.08554840087891	437.8154602050781	166.8495025634766	89.69242858886719	388.2183837890625	73.45413208007812	103.2343444824219	364.0251770019531	152.8072814941406	206.8305816650391	258.9015808105469	-83.41928100585938	718.9370727539062	556.5951538085938	
425	4.24	132.6755676269531	952.5108642578125	403.8084411621094	265.4539184570312	957.1286010742188	408.3333435058594	190.3737182617188	1038.822265625	406.9992980957031	166.2660675048828	1203.1396484375	634.5308837890625	193.3458404541016	1138.261474609375	395.7972412109375	198.3646697998047	1390.462768554688	414.9248962402344	173.4166717529297	1319.473876953125	575.59765625	135.8434753417969	1243.375610351562	370.710693359375	302.2078552246094	1352.718627929688	414.128662109375	339.5167236328125	1371.95654296875	505.5247802734375	417.3386840820312	1259.755126953125	499.0568237304688	461.0424499511719	1071.482666015625	543.6812133789062	407.2790832519531	1036.580322265625	486.0776672363281	431.6210632324219	891.90283203125	689.19189453125	496.7950134277344	866.9901123046875	644.381103515625	479.5628356933594	976.031494140625	583.3363647460938	456.9716491699219	726.0562744140625	751.4200439453125	497.0783386230469	793.596435546875	686.5779418945312	462.3121337890625	810.7879638671875	737.4837646484375	34.61963653564453	1372.239501953125	455.5767211914062	-20.35006713867188	1307.000610351562	435.1936645507812	-54.91411590576172	1044.861328125	430.0912780761719	39.97782516479492	1035.585205078125	431.75732421875	-59.96532440185547	824.877197265625	551.4850463867188	-108.8777160644531	818.738525390625	495.2792358398438	-78.09456634521484	981.1151733398438	447.6724853515625	-60.12467575073242	650.858642578125	530.3399047851562	-111.3443222045898	729.5647583007812	490.6677856445312	112.9078369140625	1566.89990234375	409.6544494628906	229.5816802978516	1605.30126953125	567.8847045898438	111.3338317871094	1603.011840820312	539.9762573242188	272.4459838867188	1564.055419921875	431.6047668457031	372.9493408203125	962.9154052734375	502.777099609375	14.63433456420898	928.079833984375	481.3008117675781	60.14102172851562	950.5469360351562	616.2645263671875	323.4476013183594	965.3040161132812	618.6610717773438	337.9700927734375	477.7051086425781	650.08984375	356.0316162109375	616.908203125	614.9112548828125	313.0021667480469	42.26233673095703	562.8447265625	335.8242492675781	241.5287170410156	615.6763305664062	245.1551666259766	38.91523361206055	779.1820068359375	213.7931060791016	39.41458892822266	694.8134765625	320.4542846679688	40.94811630249023	688.8872680664062	258.999267578125	38.23262023925781	523.3359985351562	57.97929763793945	465.9049682617188	634.4899291992188	24.57361221313477	712.8406982421875	603.232177734375	88.58844757080078	166.896484375	328.8052673339844	68.91130065917969	358.2584533691406	572.3053588867188	132.2747802734375	41.74559783935547	460.2547302246094	167.6859130859375	87.77559661865234	408.5572509765625	74.17039489746094	100.6931610107422	383.6061401367188	154.0425109863281	199.6140441894531	274.4826965332031	-81.57781219482422	718.5162353515625	554.9010620117188	
426	4.25	133.6138153076172	953.0288696289062	407.9241638183594	266.325439453125	957.5933227539062	412.7730712890625	191.3019866943359	1039.668579101562	411.6292724609375	166.43603515625	1203.702270507812	639.4647216796875	194.5253295898438	1139.23779296875	400.3722229003906	199.3047485351562	1391.414306640625	420.4300842285156	173.7683715820312	1320.123291015625	580.7979736328125	137.0929260253906	1244.426635742188	375.5389404296875	303.2066040039062	1353.758178710938	419.9552917480469	340.0156555175781	1372.945068359375	511.5190734863281	418.1227416992188	1260.821655273438	505.9172058105469	461.6712646484375	1073.202758789062	552.7991333007812	408.4975891113281	1037.414794921875	495.08349609375	431.477783203125	897.43896484375	701.863525390625	497.2295837402344	871.5803833007812	658.3256225585938	480.2675170898438	978.8362426757812	594.270263671875	457.6590270996094	733.6754150390625	769.1094970703125	497.6856689453125	799.4716796875	702.6282958984375	462.361572265625	817.9485473632812	752.7019653320312	35.38727188110352	1373.021850585938	460.4133605957031	-19.40615081787109	1307.904663085938	439.5134582519531	-53.33654403686523	1045.7568359375	432.2288208007812	41.59246444702148	1036.73828125	434.5490417480469	-58.89920806884766	824.4957885742188	551.269287109375	-107.2628631591797	818.7681884765625	494.5433959960938	-76.51067352294922	981.7967529296875	449.0040588378906	-57.28135681152344	650.655029296875	528.2911987304688	-109.1092910766602	729.5921630859375	488.8585815429688	113.8955230712891	1567.847900390625	415.0311584472656	230.1338500976562	1605.928344726562	573.8558959960938	112.0074768066406	1603.877075195312	545.40380859375	273.5228271484375	1564.684936523438	437.6975402832031	374.2091064453125	963.5928344726562	506.8253173828125	15.42093372344971	929.11083984375	485.6027221679688	60.81983184814453	951.3994140625	620.339111328125	324.1712646484375	965.6849975585938	623.0980224609375	338.3686218261719	477.4354553222656	651.8234252929688	356.3848266601562	616.837646484375	617.5248413085938	312.9562072753906	42.33937072753906	562.8753051757812	335.9658813476562	241.4252319335938	616.4225463867188	245.1522674560547	38.85845947265625	779.2208251953125	213.7028350830078	39.36845779418945	694.8264770507812	320.3345947265625	40.9271354675293	688.8914794921875	259.0401306152344	38.38626861572266	523.4028930664062	58.38332748413086	467.9596252441406	643.7825317382812	24.69034004211426	714.2599487304688	609.0175170898438	89.69229888916016	161.2287139892578	345.7884216308594	69.58705139160156	358.7821350097656	583.9166870117188	132.9380035400391	42.21656036376953	482.6306762695312	168.4553527832031	85.54791259765625	428.9161376953125	74.71817779541016	97.77670288085938	403.2054138183594	155.0984191894531	191.7445678710938	290.1690979003906	-79.83537292480469	718.1639404296875	553.455810546875	
427	4.26	134.4387969970703	953.6171875	412.0061645507812	267.0801086425781	958.0814819335938	417.1164245605469	192.1912384033203	1040.492797851562	416.0926513671875	166.6325531005859	1204.276245117188	644.2825317382812	195.6139831542969	1140.20068359375	404.8871459960938	200.1693420410156	1392.353637695312	425.7653503417969	174.0948333740234	1320.768310546875	585.8469848632812	138.2462615966797	1245.440795898438	380.239013671875	304.1275329589844	1354.795288085938	425.5815124511719	340.4656677246094	1373.939697265625	517.3040771484375	418.8316650390625	1261.88720703125	512.5057983398438	462.1526184082031	1074.9091796875	561.5403442382812	409.5229797363281	1038.279663085938	503.7477722167969	431.1663513183594	903.0218505859375	714.0015258789062	497.3916320800781	876.1678466796875	671.6768798828125	480.7912902832031	981.6311645507812	604.7460327148438	458.0346374511719	741.4498901367188	786.1954345703125	497.9518432617188	805.3883666992188	718.0577392578125	462.1547546386719	825.1793823242188	767.3082275390625	36.09965896606445	1373.772583007812	465.1312255859375	-18.52765464782715	1308.771850585938	443.7418518066406	-51.89866638183594	1046.636840820312	434.3901977539062	43.06941223144531	1037.844482421875	437.2818908691406	-57.93037414550781	824.2560424804688	551.2643432617188	-105.7863845825195	818.8720092773438	494.0450134277344	-75.05299377441406	982.4924926757812	450.4268798828125	-54.47282028198242	650.5728149414062	526.7622680664062	-106.9467468261719	729.6831665039062	487.4507141113281	114.8722229003906	1568.810791015625	420.3209228515625	230.6165771484375	1606.545532226562	579.6829223632812	112.6079483032227	1604.718627929688	550.7265625	274.5163879394531	1565.354370117188	443.6525573730469	375.3045043945312	964.2205200195312	510.8520202636719	16.16592407226562	930.2422485351562	489.80712890625	61.44874954223633	952.285888671875	624.384765625	324.8175354003906	966.00830078125	627.350341796875	338.7517395019531	477.1839294433594	653.4143676757812	356.7245788574219	616.7847290039062	619.9927978515625	312.9153137207031	42.40883636474609	562.9022827148438	336.0938415527344	241.3220672607422	617.0973510742188	245.1492462158203	38.80771255493164	779.24755859375	213.6241302490234	39.33255767822266	694.8373413085938	320.2428283691406	40.90985870361328	688.89599609375	259.0845336914062	38.53847503662109	523.4511108398438	58.67501449584961	469.8951416015625	652.4002685546875	24.73290252685547	715.6397705078125	614.5470581054688	90.60932922363281	155.1173248291016	362.8001098632812	70.13771820068359	359.1226501464844	595.0100708007812	133.4060516357422	42.53591537475586	504.8279724121094	169.1107635498047	83.06423950195312	449.1914978027344	75.12993621826172	94.51450347900391	422.7686462402344	155.9644317626953	183.3185424804688	305.9375915527344	-78.25543212890625	717.7784423828125	552.1671142578125	
